<svg width="116" height="40" viewBox="0 0 116 40" fill="none" xmlns="http://www.w3.org/2000/svg">
<path fill-rule="evenodd" clip-rule="evenodd" d="M11.655 14.0259C9.55162 13.197 7.08913 12.8999 5.08605 14.1364C3.29893 15.2396 2.156 17.1512 1.42592 19.1142C0.678115 21.1249 0.251743 23.4859 0.0900414 25.8911C-0.229204 30.6396 0.271319 35.4835 2.06072 39.3493L2.30493 39.8769H7.03897L6.44098 38.585C5.06972 35.6226 4.34213 30.4554 4.62848 26.1962C4.77004 24.0906 5.13626 22.1868 5.6893 20.6998C6.25985 19.1657 6.92592 18.3462 7.47544 18.007C7.70706 17.864 8.46972 17.6598 9.98739 18.2579C11.4301 18.8264 13.1826 19.9961 14.9364 21.8127C18.4262 25.4274 21.6789 31.3567 22.3896 39.1727L22.4648 40H27.0098L26.9195 39.0079C26.1148 30.1582 22.4175 23.0127 18.2089 18.6534C16.1167 16.4862 13.8389 14.8865 11.655 14.0259Z" fill="#8FC94F"/>
<path fill-rule="evenodd" clip-rule="evenodd" d="M27.5801 18.9424C29.2934 18.2744 31.4031 17.9915 33.1622 19.0658C34.7007 20.0054 35.6536 21.6117 36.2471 23.1902C36.8577 24.8147 37.2001 26.7044 37.3296 28.6106C37.581 32.3091 37.4366 36.1895 35.9677 39.3291L35.7224 39.8533H30.8607L31.4668 38.5581C31.9685 37.4858 32.3614 35.9061 32.5969 34.1442C32.8308 32.3944 32.9009 30.53 32.7914 28.919C32.6825 27.3158 32.4016 25.8876 31.9893 24.7909C31.5601 23.6491 31.0905 23.1305 30.7913 22.9477C30.7872 22.9458 30.3583 22.7414 29.2323 23.1804C28.1748 23.5926 26.8528 24.4577 25.5111 25.8326C22.8453 28.5645 20.3404 33.0682 19.7927 39.0269L19.7168 39.8533H15.1719L15.2631 38.8603C15.9067 31.8579 18.8645 26.1309 22.2557 22.6558C23.9384 20.9314 25.7857 19.6419 27.5801 18.9424Z" fill="#8FBFFF"/>
<path fill-rule="evenodd" clip-rule="evenodd" d="M21.739 23.2089C20.7106 24.3486 19.7325 25.6968 18.8594 27.2251C19.7677 28.8963 20.565 30.7732 21.1827 32.8431C21.946 30.7884 22.9421 29.0226 24.03 27.5707C23.3462 25.9996 22.5735 24.5415 21.739 23.2089Z" fill="#488BFF"/>
<path fill-rule="evenodd" clip-rule="evenodd" d="M8.5269 10.5355C10.5517 9.36649 11.1051 6.53418 9.76286 4.20938C8.42064 1.88457 5.6911 0.947638 3.66627 2.11667C1.64145 3.28571 1.08809 6.11802 2.43031 8.44283C3.77254 10.7676 6.50207 11.7046 8.5269 10.5355Z" fill="#8FC94F"/>
<path fill-rule="evenodd" clip-rule="evenodd" d="M31.4233 15.8049C29.3985 14.6359 28.8451 11.8036 30.1873 9.47878C31.5296 7.15398 34.2591 6.21705 36.2839 7.38608C38.3087 8.55512 38.8621 11.3874 37.5199 13.7122C36.1777 16.037 33.4481 16.974 31.4233 15.8049Z" fill="#8FBFFF"/>
<path d="M53.7693 18.2633C55.7518 18.2633 57.2789 18.7589 58.3505 19.7501C59.4222 20.7146 60.1321 22.0274 60.4804 23.6884L59.8374 23.4875L60.1187 22.8445C60.467 22.1479 60.9894 21.4514 61.686 20.7548C62.4093 20.0314 63.2666 19.442 64.2579 18.9866C65.2491 18.5044 66.3074 18.2633 67.4326 18.2633C69.2812 18.2633 70.7145 18.6651 71.7325 19.4688C72.7506 20.2458 73.4605 21.304 73.8624 22.6435C74.2642 23.9563 74.4652 25.4298 74.4652 27.064V37.7134C74.4652 38.3028 74.2776 38.7984 73.9026 39.2002C73.5275 39.5753 73.0453 39.7628 72.4559 39.7628C71.8933 39.7628 71.411 39.5753 71.0092 39.2002C70.6341 38.7984 70.4466 38.3028 70.4466 37.7134V27.1042C70.4466 26.1665 70.3126 25.3092 70.0447 24.5323C69.8036 23.7554 69.3615 23.1392 68.7186 22.6837C68.1024 22.2015 67.2451 21.9604 66.1466 21.9604C65.1018 21.9604 64.1641 22.2015 63.3336 22.6837C62.5299 23.1392 61.9003 23.7554 61.4449 24.5323C60.9894 25.3092 60.7617 26.1665 60.7617 27.1042V37.7134C60.7617 38.3028 60.5742 38.7984 60.1991 39.2002C59.824 39.5753 59.3418 39.7628 58.7524 39.7628C58.163 39.7628 57.6808 39.5753 57.3057 39.2002C56.9306 38.7984 56.7431 38.3028 56.7431 37.7134V27.064C56.7431 26.1263 56.6091 25.269 56.3412 24.4921C56.1001 23.7152 55.6714 23.099 55.0553 22.6435C54.4391 22.1881 53.5818 21.9604 52.4833 21.9604C51.4385 21.9604 50.5142 22.1881 49.7105 22.6435C48.9068 23.099 48.2772 23.7152 47.8218 24.4921C47.3931 25.269 47.1788 26.1263 47.1788 27.064V37.7134C47.1788 38.3028 46.9778 38.7984 46.576 39.2002C46.2009 39.5753 45.7321 39.7628 45.1695 39.7628C44.5801 39.7628 44.0978 39.5753 43.7228 39.2002C43.3477 38.7984 43.1602 38.3028 43.1602 37.7134V20.6744C43.1602 20.085 43.3477 19.6028 43.7228 19.2277C44.0978 18.8259 44.5801 18.6249 45.1695 18.6249C45.7321 18.6249 46.2009 18.8259 46.576 19.2277C46.9778 19.6028 47.1788 20.085 47.1788 20.6744V23.0454L46.4152 23.4875C46.6028 22.8981 46.9109 22.2953 47.3395 21.6791C47.7682 21.0629 48.304 20.5003 48.947 19.9913C49.6167 19.4822 50.3535 19.067 51.1572 18.7455C51.9609 18.424 52.8316 18.2633 53.7693 18.2633Z" fill="#488BFF"/>
<path d="M96.9672 28.7995C96.9672 30.9427 96.485 32.8449 95.5205 34.5059C94.5829 36.1402 93.3103 37.4261 91.7028 38.3638C90.0954 39.3015 88.287 39.7703 86.2777 39.7703C84.2952 39.7703 82.4868 39.3015 80.8526 38.3638C79.2451 37.4261 77.9592 36.1402 76.9947 34.5059C76.057 32.8449 75.5882 30.9427 75.5882 28.7995C75.5882 26.6294 76.057 24.7273 76.9947 23.0931C77.9592 21.432 79.2451 20.1327 80.8526 19.195C82.4868 18.2305 84.2952 17.7483 86.2777 17.7483C88.287 17.7483 90.0954 18.2305 91.7028 19.195C93.3103 20.1327 94.5829 21.432 95.5205 23.0931C96.485 24.7273 96.9672 26.6294 96.9672 28.7995ZM92.9486 28.7995C92.9486 27.326 92.6539 26.0534 92.0645 24.9818C91.4751 23.8834 90.6714 23.0261 89.6534 22.4099C88.6621 21.7669 87.5369 21.4454 86.2777 21.4454C85.0453 21.4454 83.9201 21.7669 82.9021 22.4099C81.9108 23.0261 81.1071 23.8834 80.4909 24.9818C79.9015 26.0534 79.6068 27.326 79.6068 28.7995C79.6068 30.2194 79.9015 31.4786 80.4909 32.577C81.1071 33.6754 81.9108 34.5327 82.9021 35.1489C83.9201 35.7651 85.0453 36.0732 86.2777 36.0732C87.5369 36.0732 88.6621 35.7651 89.6534 35.1489C90.6714 34.5327 91.4751 33.6754 92.0645 32.577C92.6539 31.4786 92.9486 30.2194 92.9486 28.7995Z" fill="#488BFF"/>
<path d="M98.3945 18.424C98.7963 18.424 99.1714 18.5312 99.5197 18.7455C99.8947 18.9598 100.163 19.2813 100.323 19.71L106.633 34.2975L105.869 34.6592L112.259 19.7501C112.634 18.866 113.237 18.4374 114.067 18.4642C114.603 18.4642 115.045 18.6383 115.393 18.9866C115.768 19.3081 115.956 19.7367 115.956 20.2726C115.956 20.4333 115.929 20.6074 115.875 20.795C115.822 20.9557 115.755 21.1165 115.675 21.2772L108.039 38.4769C107.691 39.2806 107.115 39.7093 106.311 39.7628C105.909 39.8164 105.507 39.7361 105.106 39.5217C104.73 39.2806 104.436 38.9323 104.221 38.4769L96.6263 20.8828C96.5727 20.7756 96.5191 20.6417 96.4655 20.481C96.4119 20.2934 96.3852 20.0791 96.3852 19.838C96.3852 19.4361 96.5593 19.4287 96.9076 19.0268C97.2826 18.6249 97.7783 18.424 98.3945 18.424Z" fill="#488BFF"/>
</svg>
